<svg height="804" viewBox="0 0 1132 804" xmlns:ev="http://www.w3.org/2001/xml-events" xmlns:xlink="http://www.w3.org/1999/xlink" xmlns="http://www.w3.org/2000/svg" width="1132"><defs/><g id="page1" transform="translate(5.5,5.5)"><rect x="0" height="794" fill="#ffffff" y="0" width="1123"/><g id="shape1" transform="translate(486.000000,140.000000)"><path stroke-width="1" stroke="#101843" fill-rule="nonzero" fill="#ffffff" d="M100.0,60.0L100.0,.0L.0,.0L.0,60.0L100.0,60.0z"/><text xml:space="preserve" style="fill:#191919;font-family:微软雅黑;font-size:10.00pt"><tspan x="10.4" y="34.1">JobExecutor</tspan></text></g><g id="shape2" transform="translate(813.000000,140.000000)"><path stroke-width="1" stroke="#101843" fill-rule="nonzero" fill="#ffffff" d="M100.0,60.0L100.0,.0L.0,.0L.0,60.0L100.0,60.0z"/><text xml:space="preserve" style="fill:#191919;font-family:微软雅黑;font-size:10.00pt"><tspan x="13.2" y="34.1">JobStorage</tspan></text></g><g id="shape3" transform="translate(813.000000,170.000000)"><path stroke-width="2.666666746139526" stroke="#191919" fill="none" d="M.0,.0L-217.2,.0"/><path stroke-linecap="round" stroke-width="1" stroke="#191919" fill="#191919" d="M-217.2,4.9L-227.0,.0L-217.2,-4.9L-217.2,4.9"/></g><g id="shape4" transform="translate(634.825060,142.437350)"><text xml:space="preserve" style="fill:#191919;font-family:微软雅黑;font-size:10.00pt"><tspan x="29.6" y="20.6">Fetch job</tspan></text></g><g id="shape5" transform="translate(355.000000,295.000000)"><path stroke-width="1" stroke="#101843" fill-rule="nonzero" fill="#ffffff" d="M100.0,60.0L100.0,.0L.0,.0L.0,60.0L100.0,60.0z"/><text xml:space="preserve" style="fill:#191919;font-family:微软雅黑;font-size:10.00pt"><tspan x="24.4" y="24.6">Remote </tspan><tspan x="22.4" y="43.0">machine</tspan></text></g><g id="shape6" transform="translate(486.000000,295.000000)"><path stroke-width="1" stroke="#101843" fill-rule="nonzero" fill="#ffffff" d="M100.0,60.0L100.0,.0L.0,.0L.0,60.0L100.0,60.0z"/><text xml:space="preserve" style="fill:#191919;font-family:微软雅黑;font-size:10.00pt"><tspan x="24.4" y="24.6">Remote </tspan><tspan x="22.4" y="43.0">machine</tspan></text></g><g id="shape7" transform="translate(617.000000,295.000000)"><path stroke-width="1" stroke="#101843" fill-rule="nonzero" fill="#ffffff" d="M100.0,60.0L100.0,.0L.0,.0L.0,60.0L100.0,60.0z"/><text xml:space="preserve" style="fill:#191919;font-family:微软雅黑;font-size:10.00pt"><tspan x="24.4" y="24.6">Remote </tspan><tspan x="22.4" y="43.0">machine</tspan></text></g><g id="shape8" transform="translate(536.000000,200.000000)"><path stroke-width="1" stroke="#191919" fill="none" d="M.0,.0L.0,89.0"/><path stroke-linecap="round" stroke-width="1" stroke="#191919" fill="#191919" d="M3.0,89.0L.0,95.0L-3.0,89.0L3.0,89.0"/></g><g id="shape9" transform="translate(536.000000,200.000000)"><path stroke-width="1" stroke="#191919" fill="none" d="M.0,.0L.0,67.0L-131.0,67.0L-131.0,89.0"/><path stroke-linecap="round" stroke-width="1" stroke="#191919" fill="#191919" d="M-128.0,89.0L-131.0,95.0L-134.0,89.0L-128.0,89.0"/></g><g id="shape10" transform="translate(536.000000,200.000000)"><path stroke-width="1" stroke="#191919" fill="none" d="M.0,.0L.0,67.0L131.0,67.0L131.0,89.0"/><path stroke-linecap="round" stroke-width="1" stroke="#191919" fill="#191919" d="M134.0,89.0L131.0,95.0L128.0,89.0L134.0,89.0"/></g><g id="shape11" transform="translate(537.000000,208.218675)"><text xml:space="preserve" style="fill:#191919;font-family:微软雅黑;font-size:10.00pt"><tspan x="21.2" y="21.6">Transfer job </tspan><tspan x="22.0" y="40.0">information</tspan></text></g></g></svg>